<svg width="23" height="18" viewBox="0 0 23 18" fill="none" xmlns="http://www.w3.org/2000/svg">
<path d="M21.8777 9.53086L17.8277 7.94883C17.6836 7.89258 17.3848 7.81875 17.0473 7.94883L12.9973 9.53086C12.6211 9.67852 12.375 10.023 12.375 10.4062C12.375 14.3297 14.7902 17.0437 17.0473 17.9262C17.3848 18.0562 17.6801 17.9824 17.8277 17.9262C19.6313 17.223 22.5 14.7832 22.5 10.4062C22.5 10.023 22.2539 9.67852 21.8777 9.53086ZM17.4375 16.2563V9.6082L20.7949 10.9195C20.598 13.9816 18.6539 15.6797 17.4375 16.2563ZM7.875 9C10.3605 9 12.375 6.98555 12.375 4.5C12.375 2.01445 10.3605 0 7.875 0C5.38945 0 3.375 2.01445 3.375 4.5C3.375 6.98555 5.38945 9 7.875 9ZM11.25 10.4062C11.25 10.3184 11.2781 10.2375 11.2887 10.1531C11.2008 10.1496 11.1164 10.125 11.025 10.125H10.4379C9.65742 10.4836 8.78906 10.6875 7.875 10.6875C6.96094 10.6875 6.09609 10.4836 5.31211 10.125H4.725C2.11641 10.125 0 12.2414 0 14.85V16.3125C0 17.2441 0.755859 18 1.6875 18H14.0625C14.3016 18 14.5301 17.9473 14.7375 17.8594C12.8391 16.3512 11.25 13.7566 11.25 10.4062Z" fill="#505051"/>
</svg>
